Coordinates
nRows=11
nColumns=24

# SIMM Motion File Header:
name Coordinates
datacolumns 24
datarows 11
otherdata 1
range 0.50000000000000000000 0.51000000000000001000

Units are S.I. units (second, meters, Newtons, ...)
Angles are in degrees.

endheader
time	pelvis_tx	pelvis_ty	pelvis_tz	pelvis_tilt	pelvis_list	pelvis_rotation	hip_flexion_r	hip_adduction_r	hip_rotation_r	knee_angle_r	ankle_angle_r	subtalar_angle_r	mtp_angle_r	hip_flexion_l	hip_adduction_l	hip_rotation_l	knee_angle_l	ankle_angle_l	subtalar_angle_l	mtp_angle_l	lumbar_extension	lumbar_bending	lumbar_rotation
      0.50000000000000000000	      0.58925245630624234000	      1.03223437193072190000	     -0.02173437657297630500	      4.82787263181065370000	      0.44460057645190415000	     -0.19949450182279857000	     19.23540663837808000000	     -4.42650675900487740000	    -10.24206519084124000000	    -19.86739221973877200000	      0.94810104915447135000	     -0.00035187483805406518	     -0.00000042802493255695	    -14.76166846130910100000	      3.65880731966390420000	      0.22396661079352218000	     -2.03603214058199990000	      7.34564649655355420000	      0.00000974686064755559	     -0.00000004479777131868	    -17.03398293883530800000	     -2.28754514839624520000	     -5.93317374366049770000
      0.50100000000000000000	      0.58918568342409561000	      1.03200416176625760000	     -0.02171372678598857900	      4.82177534978939450000	      0.48643984953833125000	     -0.19499056216791222000	     19.19671447406765500000	     -4.44334899717228460000	    -10.17114764551628700000	    -19.48713446701976800000	      0.95567977470519305000	     -0.00036078340784628468	     -0.00000385823245469259	    -14.84247263923796500000	      3.70150647671366120000	      0.24874138476860916000	     -2.00286215980742590000	      7.38226190133067740000	     -0.00007592477250384992	      0.00064379214621335969	    -17.02833280145161500000	     -2.31984840039784900000	     -5.93946269927792160000
      0.50200000000000000000	      0.58911940034829058000	      1.03177257826303270000	     -0.02169219552516757700	      4.81567060630236550000	      0.52826056042622993000	     -0.19048162833412843000	     19.15801095976143400000	     -4.46018735460952960000	    -10.10024215961264800000	    -19.10703662071486500000	      0.96325968704869991000	     -0.00037744932872198900	     -0.00001035565366687885	    -14.92328965046750600000	      3.74418106578786650000	      0.27349596105489976000	     -1.96973976350370790000	      7.41867404163579640000	     -0.00020675028089525488	      0.00161460696245380960	    -17.02270767595371100000	     -2.35213371540858280000	     -5.94574188634375570000
      0.50300000000000000000	      0.58905361241890064000	      1.03153962955640230000	     -0.02166977884668438600	      4.80955758977582090000	      0.57005003566631540000	     -0.18596344402339418000	     19.11931678305942100000	     -4.47701623904276320000	    -10.02936848235698600000	    -18.72721549017106900000	      0.97084870147782509000	     -0.00039413084623508143	     -0.00001784323242156948	    -15.00410558125278400000	      3.78681153487692820000	      0.29824072564634657000	     -1.93669020047333620000	      7.45506848463249750000	     -0.00033884845554827092	      0.00257988684800735620	    -17.01710656690815800000	     -2.38438669612642460000	     -5.95201052653617160000
      0.50400000000000000000	      0.58898832029845094000	      1.03130532811081510000	     -0.02164647082983716500	      4.80343393466457960000	      0.61179298697351903000	     -0.18143110712430999000	     19.08065733508475500000	     -4.49382745176794090000	     -9.95854298699964070000	    -18.34780325473487700000	      0.97845055283131332000	     -0.00041076358754054456	     -0.00002604498522100146	    -15.08489946065246700000	      3.82937365886803120000	      0.32297088454770584000	     -1.90374339747839020000	      7.49144158283137340000	     -0.00046963139695004377	      0.00352877938715274830	    -17.01152743478272500000	     -2.41659014393308790000	     -5.95826735277693940000
      0.50500000000000000000	      0.58892352435063489000	      1.03106968716673800000	     -0.02162226590324055700	      4.79729727069916830000	      0.65347413844374658000	     -0.17687973184902545000	     19.04205799492101300000	     -4.51061275169642520000	     -9.88778196337505830000	    -17.96893212368715400000	      0.98606911952422338000	     -0.00042735067114823676	     -0.00003488665011477672	    -15.16565034163626700000	      3.87184320463467200000	      0.34768124811153900000	     -1.87092932969881830000	      7.52778396233841550000	     -0.00059879944385663212	      0.00446029281680594170	    -17.00596826849680800000	     -2.44872684909017390000	     -5.96451106980602660000
      0.50600000000000001000	      0.58885922464005014000	      1.03083272059593530000	     -0.02159715888454102900	      4.79114524055884950000	      0.69507826788009330000	     -0.17230444673700415000	     19.00354404492756900000	     -4.52736389352411270000	     -9.81710166964299800000	    -17.59073406716838100000	      0.99370822988547358000	     -0.00044388178456028190	     -0.00004430356982236320	    -15.24633740595237400000	      3.91419599187175930000	      0.37236644903543470000	     -1.83827794096117870000	      7.56408249396445690000	     -0.00072785254763599674	      0.00537997623899825250	    -17.00042710270708200000	     -2.48077963414420880000	     -5.97074037166263860000
      0.50700000000000001000	      0.58879542121871009000	      1.03059444341475160000	     -0.02157114489333304700	      4.78497550445884820000	      0.73659020341414816000	     -0.16770039633962142000	     18.96514069282081000000	     -4.54407262266304720000	     -9.74651832703155740000	    -17.21334073383270900000	      1.00137163662581540000	     -0.00046034767308449705	     -0.00005423344361524017	    -15.32693995447892200000	      3.95640788722599450000	      0.39702118006742648000	     -1.80581904055067270000	      7.60032400611037050000	     -0.00085811187861253922	      0.00629365813439383690	    -16.99490199396823100000	     -2.51273135493455780000	     -5.97695395404248050000
      0.50800000000000001000	      0.58873211441499573000	      1.03035487232565240000	     -0.02154421928011754400	      4.77878574319720250000	      0.77799482272827458000	     -0.16306274158150977000	     18.92687309638510800000	     -4.56073067310253500000	     -9.67604811574262060000	    -16.83688337291156100000	      1.00906299766605390000	     -0.00047674959099515635	     -0.00006461419887949072	    -15.40743739336036500000	      3.99845480921642250000	      0.42164044577758930000	     -1.77358221800950490000	      7.63649941555100130000	     -0.00098920786838179505	      0.00720041129840488970	    -16.98939099560638200000	     -2.54456490211463570000	     -5.98315052827806420000
      0.50900000000000001000	      0.58866930477413337000	      1.03011402558915540000	     -0.02151637764200200000	      4.77257366044502170000	      0.81927706216271812000	     -0.15838666183131794000	     18.88876634124395800000	     -4.57732977164137810000	     -9.60570716829064790000	    -16.46149277220067100000	      1.01678586100905390000	     -0.00049309868724905148	     -0.00007538418036788139	    -15.48780926468874400000	      4.04031274506509330000	      0.44621959806256156000	     -1.74159682135261870000	      7.67260421796123460000	     -0.00111901177463349740	      0.00809174482249843010	    -16.98389216643099400000	     -2.57626321120342980000	     -5.98932882071055150000
      0.51000000000000001000	      0.58860699264311800000	      1.02987192221707540000	     -0.02148761593311477800	      4.76633698956370730000	      0.86042195022913737000	     -0.15366736212034385000	     18.85084536751028500000	     -4.59386166590147130000	     -9.53551155556026230000	    -16.08729921355743600000	      1.02454365804510240000	     -0.00050939123599116269	     -0.00008648622359618443	    -15.56803531735737400000	      4.08195780204667000000	      0.47075383285226197000	     -1.70989206656623780000	      7.70862975655253460000	     -0.00124722209944180540	      0.00896655838642798630	    -16.97840361935109900000	     -2.60780929713990380000	     -5.99548755848339180000
